<svg xmlns="http://www.w3.org/2000/svg" width="227.185" height="15.738" viewBox="0 0 227.185 15.738"><g transform="translate(-881.667 -1228.549)"><g transform="translate(168.664 -27.447)"><g transform="translate(713.003 1258.733)"><path d="M2859.809-2987.114l1.552-9.113h2.484l-1.554,9.113Zm11.456-8.916a6.4,6.4,0,0,0-2.226-.38c-2.454,0-4.182,1.236-4.2,3.007-.014,1.31,1.234,2.04,2.177,2.476.967.448,1.292.731,1.287,1.131-.006.611-.772.887-1.486.887a5.206,5.206,0,0,1-2.337-.478l-.32-.145-.349,2.04a7.866,7.866,0,0,0,2.767.486c2.611,0,4.309-1.222,4.325-3.114.01-1.037-.652-1.826-2.085-2.476-.868-.421-1.4-.7-1.394-1.129,0-.38.45-.784,1.423-.784a4.575,4.575,0,0,1,1.859.349l.222.105.336-1.974m6.392-.2h-1.919a1.235,1.235,0,0,0-1.3.756l-3.689,8.351h2.608s.426-1.123.523-1.369l3.181,0c.074.317.3,1.366.3,1.366h2.305l-2.011-9.107Zm-3.045,5.884c.205-.525.989-2.547.989-2.547-.015.025.2-.527.33-.87l.168.786.575,2.631Zm-16.912-5.884-2.432,6.215-.257-1.259a7.114,7.114,0,0,0-3.44-3.822l2.224,7.969h2.628l3.91-9.1H2857.7" transform="translate(-2848.964 2996.84)" fill="#bacad6"/><path d="M2829.956-3000.584h-4.005l-.032.19a8.219,8.219,0,0,1,6.034,4.767l-.871-4.187a1.04,1.04,0,0,0-1.126-.77" transform="translate(-2825.919 3000.591)" fill="#bacad6"/></g><g transform="translate(752.606 1255.996)"><path d="M3225.132-3018.24a7.674,7.674,0,0,1,.119-.88c.05-.308.376-2.251.376-2.251h.554a8.379,8.379,0,0,1,2.376-4.316,7.832,7.832,0,0,0-5.069-1.859,7.876,7.876,0,0,0-7.867,7.867,7.876,7.876,0,0,0,7.867,7.867,7.829,7.829,0,0,0,5.07-1.859,8.381,8.381,0,0,1-2.282-3.906,1.8,1.8,0,0,1-.459.064.634.634,0,0,1-.52-.2A.634.634,0,0,1,3225.132-3018.24Zm-6.188.668.5-3.119-1.111,3.119h-.592l-.073-3.1-.523,3.1h-.813l.679-4.055h1.249l.035,2.512.843-2.512h1.349l-.672,4.055Zm2.919,0,.016-.342a1.091,1.091,0,0,1-.91.4.81.81,0,0,1-.6-.275.811.811,0,0,1-.2-.626c0-.8.561-1.272,1.524-1.272a2.875,2.875,0,0,1,.355.025.829.829,0,0,0,.034-.214c0-.219-.151-.3-.557-.3a2.908,2.908,0,0,0-.92.148c.009-.055.12-.741.12-.741a3.457,3.457,0,0,1,1.04-.175c.746,0,1.141.335,1.141.966a4.209,4.209,0,0,1-.071.655c-.075.478-.237,1.5-.259,1.752Zm2.543-1.965a.9.9,0,0,1,.612.919c0,.754-.423,1.1-1.34,1.1a4.03,4.03,0,0,1-.9-.1c0-.035.119-.76.119-.76a2.448,2.448,0,0,0,.779.13c.343,0,.5-.093.5-.3,0-.15-.054-.2-.406-.365a.963.963,0,0,1-.661-.921c0-.61.333-1.117,1.3-1.117a5.937,5.937,0,0,1,.764.063l-.123.766a4.854,4.854,0,0,0-.624-.05c-.281,0-.425.092-.425.27,0,.153.041.191.409.356Z" transform="translate(-3215.621 3027.549)" fill="#bacad6"/><path d="M3268.719-2943.5a.3.3,0,0,0,.079.239.3.3,0,0,0,.232.1c.354,0,.608-.336.623-.824a1.38,1.38,0,0,0-.193-.013C3268.966-2944,3268.719-2943.836,3268.719-2943.5Z" transform="translate(-3263.32 2952.496)" fill="#bacad6"/><path d="M3404.08-2944c-.492,0-.741.168-.741.5a.3.3,0,0,0,.079.239.3.3,0,0,0,.232.1c.354,0,.609-.337.624-.824a1.429,1.429,0,0,0-.194-.014Z" transform="translate(-3384.259 2952.495)" fill="#bacad6"/><path d="M3355.439-3027.55a7.83,7.83,0,0,0-5.069,1.859,8.367,8.367,0,0,1,2.457,4.776,1.775,1.775,0,0,1,1.5-.82,3.008,3.008,0,0,1,.955.211l-.142.881a1.655,1.655,0,0,0-.776-.219c-.648,0-1.1.626-1.1,1.521,0,.616.305.989.811.989a1.685,1.685,0,0,0,.738-.208l-.153.925a2.713,2.713,0,0,1-.767.119,1.408,1.408,0,0,1-1.141-.511,8.369,8.369,0,0,1-2.383,4.356,7.827,7.827,0,0,0,5.069,1.859,7.877,7.877,0,0,0,7.868-7.867A7.877,7.877,0,0,0,3355.439-3027.55Zm1.879,9.973h-.719l.016-.342a1.089,1.089,0,0,1-.91.4.811.811,0,0,1-.6-.275.812.812,0,0,1-.2-.626c0-.8.562-1.272,1.524-1.272a2.871,2.871,0,0,1,.354.026.84.84,0,0,0,.033-.214c0-.219-.15-.3-.556-.3a2.906,2.906,0,0,0-.919.148l.121-.741a3.461,3.461,0,0,1,1.039-.175c.746,0,1.141.335,1.141.966a4.215,4.215,0,0,1-.07.655c-.073.479-.237,1.506-.263,1.753Zm1.159,0h-.869l.04-.222c.151-1.022.344-2.056.453-3.077h.8a2.962,2.962,0,0,1-.052.5c.266-.39.47-.6.833-.52a3.248,3.248,0,0,0-.33.957c-.489-.045-.565.347-.875,2.363Zm2.617,0,.041-.307a1.023,1.023,0,0,1-.8.364c-.634,0-1.049-.544-1.049-1.369,0-1.1.647-2.023,1.413-2.023a.981.981,0,0,1,.83.45l.19-1.172h.856l-.661,4.055Z" transform="translate(-3336.674 3027.55)" fill="#bacad6"/><path d="M3447.671-2954.22c-.394,0-.674.46-.674,1.109,0,.431.15.65.444.65.4,0,.689-.458.689-1.112C3448.127-2953.992,3447.969-2954.22,3447.671-2954.22Z" transform="translate(-3423.48 2961.673)" fill="#bacad6"/><path d="M3334.551-2955.21c-.274,0-.471.21-.551.589h.951C3334.957-2954.69,3335.045-2955.21,3334.551-2955.21Z" transform="translate(-3321.969 2962.564)" fill="#bacad6"/><path d="M3327.683-3000.3a7.194,7.194,0,0,0-.044-.771,3.686,3.686,0,0,0-.164.59c-.487-.049-.562.345-.872,2.363h-.869l.04-.222c.151-1.022.344-2.056.453-3.078h.8a3,3,0,0,1-.052.5c.208-.306.38-.5.617-.53a7.855,7.855,0,0,0-2.323-4.444,7.861,7.861,0,0,0-2.327,4.474h.224l-.118.793h-.19c-.006.133-.01.266-.01.4a7.84,7.84,0,0,0,2.418,5.667,7.844,7.844,0,0,0,2.393-5.049c0-.067-.008-.135-.008-.206A3.589,3.589,0,0,1,3327.683-3000.3Zm-3.018,1.494a2.045,2.045,0,0,0,.9-.209l-.144.824a2.944,2.944,0,0,1-.887.134,1.312,1.312,0,0,1-1.1-.375,1.312,1.312,0,0,1-.373-1.1c0-1.128.641-1.958,1.51-1.958a1.1,1.1,0,0,1,.857.33,1.1,1.1,0,0,1,.31.865,3.527,3.527,0,0,1-.106.812h-1.719c-.059.475.252.671.752.671Z" transform="translate(-3311.95 3008.098)" fill="#bacad6"/></g><path d="M4506.439-2987.373h.12l.1-.032.1-.032.085-.086.085-.087.044-.115.045-.115v-.339l-.04-.063-.04-.063-.069-.042-.069-.043h-.3l-.1.046-.1.045-.06.063-.059.063-.046.11-.047.109-.01.171-.008.171.043.085.042.085.084.038.083.038Zm19.271,4.86h.436v-.266l.05-.33c.028-.181.073-.469.1-.639s.063-.385.078-.478.053-.295.086-.448.074-.317.091-.368a.588.588,0,0,0,.032-.115,1.346,1.346,0,0,1,.083-.2l.082-.174.107-.144.108-.144.119-.09a1.686,1.686,0,0,1,.233-.145l.113-.055h.5l.1.031.1.031.017-.01.016-.01v-.063a2.539,2.539,0,0,1,.048-.29l.047-.225-.052-.021c-.05-.019-.1-.036-.151-.052l-.1-.031h-.358l-.146.052-.146.051-.109.063-.11.063-.143.149-.143.149-.077.116a.5.5,0,0,1-.083.11s.021-.137.051-.3.057-.31.057-.333v-.045h-.736v.013c0,.007-.019.134-.041.284s-.067.437-.1.64q-.059.363-.118.727-.052.314-.11.627c-.028.148-.077.408-.109.578s-.085.443-.119.607l-.1.483-.037.185Zm-10.094,0h.425l.014-.18c.006-.1.031-.3.052-.444s.068-.434.1-.642q.064-.386.139-.77c.043-.215.091-.429.108-.475a.547.547,0,0,0,.029-.112,1.109,1.109,0,0,1,.072-.182,2.354,2.354,0,0,1,.161-.289l.092-.134.121-.113.122-.113.15-.071.149-.072h.458l.113.034a1.283,1.283,0,0,0,.126.034c.009,0,.012-.021.012-.047s.023-.157.05-.292.05-.25.05-.253a.518.518,0,0,0-.145-.057,1.913,1.913,0,0,0-.244-.056l-.1-.013-.127.023a1.671,1.671,0,0,0-.235.063,1.327,1.327,0,0,0-.214.107,1.459,1.459,0,0,0-.2.164,2.282,2.282,0,0,0-.2.235l-.131.179-.029.04.019-.08c.009-.044.036-.19.058-.317s.047-.253.052-.274l.011-.035h-.761v.048c0,.026-.023.185-.049.354s-.074.449-.1.624-.078.48-.11.677-.071.42-.109.627q-.112.6-.229,1.194c-.035.17-.075.37-.09.444s-.028.145-.028.154v.018Zm-10.02,0h.429l.012-.032a.355.355,0,0,0,.012-.1c0-.038.027-.237.06-.443q.112-.7.231-1.4c.034-.2.069-.391.106-.587.032-.164.081-.42.108-.57s.083-.429.122-.625.076-.365.082-.374l.011-.018-.434.005-.434.006-.036.259c-.02.143-.063.425-.1.627s-.083.512-.111.687c-.035.21-.071.418-.109.627-.032.17-.081.429-.109.578s-.078.408-.11.577-.078.394-.1.5-.044.209-.051.234l-.012.045Zm-5.357,0h.484l.034-.214c.02-.118.057-.344.083-.5l.109-.657c.034-.2.084-.5.113-.667s.072-.419.1-.566a2.349,2.349,0,0,1,.06-.279l.012-.011h2.6l.014.014.014.014-.021.115c-.013.063-.05.259-.082.434s-.087.471-.121.658-.073.392-.11.587c-.026.137-.08.424-.119.637s-.069.4-.069.414v.025h.972l.021-.127c.011-.068.031-.19.042-.273s.039-.257.063-.389.067-.391.1-.577.087-.507.12-.707.083-.5.11-.657q.051-.3.108-.6c.032-.17.087-.457.119-.638s.083-.454.11-.607.078-.432.112-.618.078-.4.1-.483l.034-.144h-.984l-.013.094c-.008.052-.031.2-.053.324s-.063.35-.088.5-.075.43-.107.627-.063.386-.093.58l-.033.222-.722.015-.723.014-.6-.014c-.333-.008-.607-.016-.609-.018a1.594,1.594,0,0,1,.025-.172q.032-.179.068-.358c.031-.152.061-.3.089-.458s.059-.332.07-.408.033-.2.05-.284.048-.247.07-.372.045-.241.053-.258l.012-.032h-.977l-.032.174c-.016.1-.039.233-.05.3s-.048.3-.081.507-.083.517-.111.687l-.109.687q-.058.359-.121.717-.053.294-.108.587l-.109.579c-.034.181-.074.38-.111.57-.027.132-.057.283-.063.338s-.04.213-.068.351-.051.266-.051.284v.032h.484Zm28.972.1h.19l.179-.029a2.837,2.837,0,0,0,.279-.057,1.38,1.38,0,0,0,.219-.089l.119-.064.1-.091.1-.091.108-.145a2.043,2.043,0,0,0,.12-.174l.011-.03-.01.1c-.007.066-.016.132-.027.2s-.023.16-.03.234l-.013.134h.782v-.269l.06-.507c.032-.279.081-.651.107-.824s.066-.427.09-.558.063-.369.093-.528.077-.437.109-.617.087-.467.118-.638.08-.434.109-.587.08-.422.113-.6.071-.365.109-.547c.026-.127.048-.236.048-.244v-.014h-.853l-.013.127c-.007.068-.04.295-.072.5q-.059.369-.119.738c-.025.141-.047.283-.07.424l-.011.066-.033-.014c-.019-.008-.119-.036-.223-.063l-.19-.047-.259-.021-.259-.02-.219.02-.219.021-.2.051-.2.051-.19.093-.19.093-.14.1-.139.1-.12.127a2.834,2.834,0,0,0-.212.261l-.092.132-.108.225c-.058.127-.131.288-.161.365s-.079.246-.113.38l-.063.238-.03.309-.03.309.022.249.023.25.026.089c.014.049.045.137.068.2l.042.106.077.1.078.1.087.072.087.072.119.059a1.619,1.619,0,0,0,.246.093,2.114,2.114,0,0,0,.249.051c.068.009.208.017.313.018Zm.34-.565-.15.008-.1-.018a1.079,1.079,0,0,1-.2-.06l-.1-.042-.081-.067-.083-.067-.121-.232-.027-.127-.028-.127v-.518l.032-.229.032-.229.05-.159a1.6,1.6,0,0,0,.05-.184.956.956,0,0,1,.063-.159c.039-.085.079-.171.123-.253a2.085,2.085,0,0,1,.142-.228,2.015,2.015,0,0,1,.175-.2,1.373,1.373,0,0,1,.184-.146l.09-.055.157-.054.157-.054h.657l.19.052c.1.029.214.063.245.074l.057.021-.012.055c-.005.03-.03.162-.053.293s-.067.38-.1.558-.081.44-.111.587-.068.336-.09.418-.045.168-.068.253a1.649,1.649,0,0,1-.083.219,1.826,1.826,0,0,1-.117.2,1.168,1.168,0,0,1-.127.152,1.754,1.754,0,0,1-.176.135l-.109.072-.317.1-.15.008Zm-7.072.558.269-.008.169-.043.169-.043.109-.051a1.962,1.962,0,0,0,.22-.126,1.67,1.67,0,0,0,.208-.17,2.342,2.342,0,0,0,.176-.2.526.526,0,0,1,.085-.1,1.515,1.515,0,0,1-.022.2,3.134,3.134,0,0,0-.028.324v.126h.731l.011-.283.011-.284.053-.369c.028-.2.075-.5.1-.667s.076-.444.107-.618.081-.449.109-.607l.054-.289v-.5l-.057-.116-.056-.115-.076-.073-.077-.074-.127-.063-.127-.063-.373-.083-.259-.02-.257-.019-.332.02c-.183.011-.44.034-.57.049l-.238.029h-.326l-.025.115c-.013.063-.049.212-.08.333a1.676,1.676,0,0,0-.051.224,1.275,1.275,0,0,0,.19-.044c.1-.028.322-.073.486-.1l.3-.052.269-.011.268-.011.347.063.115.057.116.057.063.1.063.1v.3l-.035.167-.034.167H4522.7l-.235.063a2.8,2.8,0,0,0-.316.105.487.487,0,0,1-.1.04,1.171,1.171,0,0,0-.171.094l-.152.094-.12.12a1.9,1.9,0,0,0-.186.219,1.863,1.863,0,0,0-.134.253l-.063.155-.03.173-.03.174v.365l.028.151.03.152.053.1a1.27,1.27,0,0,0,.121.178l.067.079.119.072.119.072.136.039c.074.021.19.047.253.057l.117.018.269-.007Zm.25-.557-.159.008-.106-.027a1.09,1.09,0,0,1-.2-.073l-.091-.046-.049-.059a.866.866,0,0,1-.092-.141l-.042-.082-.009-.19-.008-.19.033-.117a2.007,2.007,0,0,1,.1-.247l.063-.13.12-.12.121-.119.127-.063.127-.063.16-.038.159-.038h1l.031.013.032.013-.026.156c-.015.086-.05.242-.078.345s-.077.253-.109.34-.059.156-.059.163a1.03,1.03,0,0,1-.073.134l-.073.123-.119.119a.827.827,0,0,1-.136.119.357.357,0,0,0-.089.05l-.074.049-.161.051-.162.052-.159.008Zm-3.525.565h.219l.249-.03c.137-.016.317-.042.4-.06q.157-.031.31-.073a1.069,1.069,0,0,0,.168-.057,1.019,1.019,0,0,0,.053-.2c.02-.1.045-.241.056-.306a.5.5,0,0,0,.012-.127s-.018,0-.032.013a1.661,1.661,0,0,1-.217.091l-.19.072-.273.052-.274.052-.233-.008-.232-.008-.132-.046-.132-.046-.1-.089-.1-.089-.068-.127-.067-.123-.033-.165-.032-.165v-.428l.039-.259.04-.259.041-.139c.023-.077.049-.166.058-.2a2.027,2.027,0,0,1,.081-.209c.036-.082.1-.209.143-.282l.077-.132.1-.1.094-.1.1-.063.1-.063.126-.039a2.324,2.324,0,0,1,.277-.063l.15-.024.219.012.219.011.259.052.26.051.106.039c.058.022.107.039.11.039a1.05,1.05,0,0,0,.031-.164c.014-.091.039-.239.056-.33a.838.838,0,0,0,.021-.174,1.1,1.1,0,0,0-.173-.027c-.09-.011-.335-.028-.544-.041l-.38-.021-.269.021-.269.02-.2.042-.2.041-.127.052a1.962,1.962,0,0,0-.229.113c-.052.032-.105.064-.157.1a2.581,2.581,0,0,0-.209.19l-.153.15-.085.126a3.4,3.4,0,0,0-.179.317l-.1.19-.073.21c-.04.115-.1.3-.127.417l-.051.21-.019.19-.019.19v.5l.02.145.018.145.063.149.059.149.069.108.068.107.109.108.109.108.117.063.115.063.153.042a2.659,2.659,0,0,0,.269.059,3.28,3.28,0,0,0,.335.02Zm-6.333,0h.219l.219-.021c.12-.011.317-.034.438-.051s.329-.055.462-.084l.243-.054.012-.09c.007-.049.034-.2.063-.327l.049-.237-.011-.011-.011-.01-.075.035c-.041.021-.168.067-.283.105l-.21.069-.219.042-.22.042h-.7l-.119-.039a1.842,1.842,0,0,1-.215-.085l-.094-.047-.157-.143-.063-.107-.063-.107-.039-.134-.038-.134v-.5l.033-.223.036-.222.6-.029,1.108.008,1.108.006.033-.141c.019-.079.047-.24.063-.359l.029-.217v-.364l-.031-.136-.031-.136-.052-.09a1.172,1.172,0,0,0-.113-.159.867.867,0,0,0-.131-.12c-.04-.027-.117-.074-.171-.1l-.1-.052-.174-.042-.173-.042-.214-.02-.214-.021-.2.013-.2.013-.239.046-.239.046-.149.06a2.734,2.734,0,0,0-.278.132,1.976,1.976,0,0,0-.219.146c-.049.04-.135.118-.19.172a1.819,1.819,0,0,0-.182.219,2.886,2.886,0,0,0-.151.259c-.039.077-.089.185-.111.239s-.063.167-.093.249-.072.239-.1.348c-.031.133-.057.267-.08.4l-.031.2v.593l.03.127a2.4,2.4,0,0,0,.071.239,1.491,1.491,0,0,0,.091.2,1.182,1.182,0,0,0,.133.177,1.751,1.751,0,0,0,.182.161,1.386,1.386,0,0,0,.216.127l.118.053.162.04c.09.021.226.048.3.057s.236.019.357.021Zm.375-2.806c-.552,0-1,0-1-.009s.024-.074.052-.154.08-.2.112-.265l.063-.119.132-.131.132-.131.127-.063a1.559,1.559,0,0,1,.208-.082,2.263,2.263,0,0,1,.279-.033l.2-.013.153.02.153.02.111.051.111.051.063.063a.715.715,0,0,1,.088.118l.028.052.018.117.019.117-.022.194-.021.195Zm-5.926,4.563.011-.032a.314.314,0,0,0,.013-.09c0-.033.014-.15.032-.262s.058-.369.09-.57.08-.507.107-.677.049-.322.073-.483a.644.644,0,0,1,.036-.174.347.347,0,0,1,.063.095l.05.094.111.111.11.112.136.054.136.054.162.02.163.021.205-.013.206-.013.223-.058.223-.057.12-.054a2.585,2.585,0,0,0,.259-.145l.139-.091.127-.13a3.029,3.029,0,0,0,.225-.253,1.113,1.113,0,0,0,.093-.136.589.589,0,0,1,.057-.094,2.415,2.415,0,0,0,.141-.282c.047-.11.119-.308.161-.438l.078-.239.04-.207c.022-.114.051-.3.063-.418l.024-.211-.014-.179-.013-.179-.041-.179-.042-.179-.067-.134-.067-.134-.13-.137-.13-.138-.307-.159-.17-.041-.169-.041-.169-.013-.169-.013-.19.021-.19.021-.154.039-.154.04-.134.063a2.357,2.357,0,0,0-.238.126,1.11,1.11,0,0,0-.131.094.685.685,0,0,1-.08.063l-.052.034.037-.176c.021-.1.038-.186.038-.2v-.025h-.73l-.063.4c-.036.222-.091.565-.127.76q-.108.653-.218,1.3c-.033.19-.087.5-.12.677s-.082.444-.108.587-.076.411-.109.6q-.06.329-.122.658c-.04.205-.079.411-.119.617-.032.164-.063.317-.07.344l-.012.044h.857Zm1.249-2.293-.108-.019-.109-.019-.109-.051-.11-.051-.077-.073-.078-.073-.045-.1a1.333,1.333,0,0,1-.069-.207l-.025-.107.01-.172.01-.172.051-.269c.039-.205.077-.411.113-.617.035-.19.085-.473.114-.625l.052-.275.114-.1a1.908,1.908,0,0,1,.221-.156l.108-.063.14-.042.139-.044.359-.021.145.031.146.031.1.047.1.048.087.087.086.087.046.092a1.266,1.266,0,0,1,.08.22l.034.127-.01.38-.01.38-.051.224c-.028.123-.081.311-.119.417l-.068.2-.083.158a2.468,2.468,0,0,1-.157.26,1.076,1.076,0,0,1-.144.162c-.045.04-.094.078-.142.114l-.074.054-.338.115-.333.02Z" transform="translate(-3616.647 4248.42)" fill="#bacad6"/><g transform="translate(833.87 1256.646)"><path d="M4064.738-3017.994a4.182,4.182,0,0,1,1.345-.217,4.245,4.245,0,0,1,4.164,3.4l2.915-.594a7.224,7.224,0,0,0-7.076-5.78,7.155,7.155,0,0,0-2.286.372l.941,2.819Z" transform="translate(-4058.865 3021.185)" fill="#bacad6"/><path d="M4017.7-2992.5l1.97-2.231a4.238,4.238,0,0,1-1.431-3.184,4.224,4.224,0,0,1,1.431-3.178l-1.97-2.224a7.205,7.205,0,0,0-2.435,5.409,7.216,7.216,0,0,0,2.435,5.408Z" transform="translate(-4015.267 3005.138)" fill="#bacad6"/><path d="M4070.188-2941.75a4.245,4.245,0,0,1-4.163,3.395,4.265,4.265,0,0,1-1.352-.217l-.942,2.819a7.212,7.212,0,0,0,2.293.371,7.219,7.219,0,0,0,7.076-5.774l-2.915-.595Z" transform="translate(-4058.807 2949.823)" fill="#bacad6"/><path d="M4196.395-2995.018a2.578,2.578,0,0,1-1.853.743,2.52,2.52,0,0,1-1.338-.4l-.966,1.537a4.392,4.392,0,0,0,2.281.675,4.417,4.417,0,0,0,3.147-1.251l-1.268-1.3Zm-1.747-6.264a4.411,4.411,0,0,0-4.473,4.337,4.376,4.376,0,0,0,.712,2.472l7.98-3.414a4.411,4.411,0,0,0-4.219-3.4M4192-2996.6a2.527,2.527,0,0,1-.019-.31,2.594,2.594,0,0,1,2.633-2.553,2.565,2.565,0,0,1,1.939.923Zm9.374-6.667v8.507l1.475.613-.7,1.679-1.462-.607a1.635,1.635,0,0,1-.72-.607,1.9,1.9,0,0,1-.285-1.053v-8.531Zm5.322,3.934a2.592,2.592,0,0,1,.824-.127,2.593,2.593,0,0,1,2.541,2.076l1.778-.366a4.408,4.408,0,0,0-4.318-3.525,4.467,4.467,0,0,0-1.395.223l.571,1.722Zm-2.1,5.756,1.2-1.357a2.585,2.585,0,0,1-.874-1.945,2.586,2.586,0,0,1,.874-1.939l-1.2-1.357a4.4,4.4,0,0,0-1.487,3.3,4.386,4.386,0,0,0,1.486,3.3Zm5.465-2.775a2.6,2.6,0,0,1-2.541,2.075,2.61,2.61,0,0,1-.823-.136l-.576,1.723a4.364,4.364,0,0,0,1.4.229,4.406,4.406,0,0,0,4.318-3.526l-1.778-.365Z" transform="translate(-4172.395 3005.084)" fill="#bacad6"/></g><g transform="translate(921.783 1256.562)"><path d="M4891.078-3022.011h-3.428a7.2,7.2,0,0,0-5.25,2.112,7.2,7.2,0,0,0-2.1,5.256,7.312,7.312,0,0,0,7.351,7.242h3.429a7.583,7.583,0,0,0,7.623-7.242,7.453,7.453,0,0,0-2.272-5.276,7.452,7.452,0,0,0-5.351-2.092Zm-3.408,13.993a6.68,6.68,0,0,1-6.673-6.687,6.682,6.682,0,0,1,6.673-6.688,6.682,6.682,0,0,1,6.673,6.688,6.681,6.681,0,0,1-6.674,6.686Z" transform="translate(-4880.296 3022.013)" fill="#bacad6"/><path d="M4911.36-2985.277h0a4.245,4.245,0,0,0,2.716,3.955v-7.911a4.246,4.246,0,0,0-2.716,3.956Z" transform="translate(-4908.201 2992.563)" fill="#bacad6"/><path d="M4967.86-2989.23v7.913h0a4.246,4.246,0,0,0,2.717-3.957,4.246,4.246,0,0,0-2.717-3.956Z" transform="translate(-4958.96 2992.562)" fill="#bacad6"/></g><g transform="translate(788.32 1257.703)"><path d="M3592.93-3009.3l-.679,1.576h1.361Zm-7.835.977a.4.4,0,0,0,.2-.376.361.361,0,0,0-.207-.35,1.059,1.059,0,0,0-.468-.071h-1.215v.878h1.2a.95.95,0,0,0,.491-.083Zm-15.565-.977-.671,1.576h1.346Zm31.254,10.1h-1.9v-.848h1.9a.576.576,0,0,0,.4-.1.343.343,0,0,0,.117-.258.317.317,0,0,0-.121-.262.516.516,0,0,0-.347-.087c-.926-.031-2.082.027-2.082-1.225,0-.57.38-1.177,1.416-1.177h1.965v-.787H3600.3a2.116,2.116,0,0,0-1.234.324v-.324h-2.7a1.923,1.923,0,0,0-1.178.324v-.324h-4.823v.324a2.651,2.651,0,0,0-1.331-.324h-3.181v.324a2.325,2.325,0,0,0-1.39-.324h-3.56l-.815.845-.76-.845h-5.318v5.519h5.217l.84-.858.791.858h3.216v-1.3h.317a3.476,3.476,0,0,0,1.374-.194v1.489h2.653v-1.438h.127c.163,0,.179.006.179.163v1.276h8.059a2.372,2.372,0,0,0,1.342-.354v.354h2.556a3.558,3.558,0,0,0,1.447-.253v-1.029a1.572,1.572,0,0,1-1.339.507Zm-16.356-1.3H3583.2v1.327h-1.917l-1.215-1.309-1.262,1.309h-3.908v-3.955h3.968l1.213,1.3,1.255-1.3h3.152c.783,0,1.662.208,1.662,1.3s-.855,1.325-1.717,1.325Zm5.919-.179a1.111,1.111,0,0,1,.163.722v.784h-.99v-.495c0-.238.024-.591-.159-.774a.99.99,0,0,0-.724-.175h-1.054v1.444h-.988v-3.955h2.277a2.545,2.545,0,0,1,1.187.186.921.921,0,0,1,.507.879,1.11,1.11,0,0,1-.7,1.052,1.071,1.071,0,0,1,.483.332Zm4.075-1.631h-2.31v.719h2.254v.807h-2.254v.787l2.31,0v.82h-3.295v-3.955h3.295Zm2.535,3.137h-1.921v-.848h1.914a.6.6,0,0,0,.4-.1.342.342,0,0,0,.116-.258.335.335,0,0,0-.12-.262.537.537,0,0,0-.351-.087c-.923-.03-2.079.027-2.079-1.224,0-.574.376-1.177,1.411-1.177h1.978v.842h-1.81a.69.69,0,0,0-.4.073.3.3,0,0,0-.148.283.3.3,0,0,0,.216.295,1.177,1.177,0,0,0,.384.045l.531.014a1.642,1.642,0,0,1,1.126.317,1.077,1.077,0,0,1,.3.838c0,.851-.555,1.248-1.55,1.248Zm-7.651-3.073a1.012,1.012,0,0,0-.47-.071h-1.215v.887h1.2a.981.981,0,0,0,.487-.082.42.42,0,0,0,.2-.38.374.374,0,0,0-.2-.356Zm11.022-.072a.706.706,0,0,0-.4.072.306.306,0,0,0-.144.285.3.3,0,0,0,.216.294,1.193,1.193,0,0,0,.38.044l.535.014a1.605,1.605,0,0,1,1.12.317.517.517,0,0,1,.091.1v-1.125h-1.8Zm-15.865,0h-1.286v1.008h1.275c.38,0,.615-.181.615-.522s-.245-.486-.6-.486Zm-8.584,0v.719h2.165v.807h-2.165v.787h2.426l1.127-1.16-1.077-1.153Zm6.334,2.766v-3.168l-1.514,1.56,1.514,1.611Zm-6.251-6.35v.681h8.242l0-1.441h.16c.112,0,.144.013.144.19v1.252h4.263v-.336a3.505,3.505,0,0,0,1.584.336h1.793l.384-.879h.851l.376.879h3.455v-.834l.523.834h2.77v-5.513h-2.741v.651l-.384-.651h-2.812v.651l-.352-.651h-3.8a3.537,3.537,0,0,0-1.648.322v-.322h-2.622v.322a1.675,1.675,0,0,0-1.114-.322h-9.577l-.643,1.424-.66-1.424h-3.016v.651l-.332-.651h-2.572l-1.195,2.622v2.1l1.767-3.954h1.466l1.677,3.744v-3.744h1.61l1.291,2.682,1.186-2.682h1.643v3.954h-1.014l0-3.1-1.43,3.1h-.864l-1.434-3.1v3.1h-2.006l-.38-.882h-2.054l-.38.882h-1.071v.8h1.685l.38-.878h.851l.38.878h3.317v-.672l.3.675h1.722l.3-.685Zm12.99-3.607a2.057,2.057,0,0,1,1.5-.461h.955v.847h-.935a.976.976,0,0,0-.76.235,1.268,1.268,0,0,0-.284.9,1.332,1.332,0,0,0,.272.928.978.978,0,0,0,.688.2h.444l1.39-3.109h1.479l1.67,3.739v-3.739h1.5l1.734,2.754v-2.754h1.01v3.954h-1.4l-1.87-2.968v2.968h-2.009l-.384-.882H3591.9l-.372.882h-1.155a2.134,2.134,0,0,1-1.43-.437,1.941,1.941,0,0,1-.527-1.509,2.044,2.044,0,0,1,.532-1.546Zm-2.028-.461h1v3.954h-1.006Zm-4.538,0h2.269a2.421,2.421,0,0,1,1.195.19.917.917,0,0,1,.5.876,1.116,1.116,0,0,1-.7,1.054,1.143,1.143,0,0,1,.489.333,1.1,1.1,0,0,1,.163.725v.777h-1l0-.5a1.146,1.146,0,0,0-.156-.77,1,1,0,0,0-.719-.17h-1.059v1.438h-.987v-3.954Zm-3.976,0h3.3v.824h-2.309v.713h2.253v.81h-2.253v.79h2.309v.817h-3.3Z" transform="translate(-3567.036 3010.747)" fill="#bacad6"/></g></g></g></svg>